#!OML:ASF H:\Terrain\Patient Classification 1\Takeo\Monday\TakeoMonday.ASF
:FULLY-SPECIFIED
:DEGREES
985
root 9.66339 17.3394 -2.38528 9.89676 4.22462 -2.33204
lowerback 15.026 2.95096 0.563407
upperback 9.61202 3.94344 -1.07083
thorax 1.88848 2.04042 -1.94413
lowerneck -11.0281 -0.621227 -3.96306
upperneck -11.7332 -0.242333 2.13975
head -1.85989 0.0472144 1.34006
rclavicle -4.86029e-014 1.92821e-014
rhumerus 34.8304 60.1112 -79.7806
rradius 38.9182
rwrist -49.2345
rhand -48.1603 13.2201
rfingers 7.12502
rthumb -20.8224 -15.6825
lclavicle -4.86029e-014 1.92821e-014
lhumerus 35.7125 -14.1215 82.1443
lradius 37.7923
lwrist 31.1444
lhand -40.6009 32.202
lfingers 7.12502
lthumb -13.547 61.7413
rfemur -10.0311 -22.3728 28.8753
rtibia 28.5972
rfoot -28.3754 -27.3635
rtoes -1.57024
lfemur -39.2395 -6.57628 -17.0238
ltibia 35.7454
lfoot -2.11956 1.99235
ltoes -10.3912
986
root 9.67851 17.3445 -2.40864 9.61234 3.78756 -2.39899
lowerback 14.7316 2.95858 0.621212
upperback 9.38304 3.9582 -1.20654
thorax 1.81273 2.05136 -2.11065
lowerneck -11.2848 -0.514275 -3.59073
upperneck -11.3639 -0.136306 2.03604
head -1.69899 0.0840202 1.24062
rclavicle -1.25234e-014 -9.93923e-016
rhumerus 35.6555 59.6897 -78.9965
rradius 39.0081
rwrist -48.4601
rhand -48.0631 13.3338
rfingers 7.12502
rthumb -20.7291 -15.5791
lclavicle -1.25234e-014 -9.93923e-016
lhumerus 35.9649 -14.2646 81.8437
lradius 38.8896
lwrist 31.4384
lhand -39.904 33.6366
lfingers 7.12502
lthumb -12.8753 63.2195
rfemur -9.71827 -22.2939 28.7751
rtibia 28.3922
rfoot -28.4729 -27.4375
rtoes -0.788738
lfemur -38.8418 -6.3356 -17.0319
ltibia 35.5433
lfoot -2.1952 1.99132
ltoes -11.5956
987
root 9.68776 17.3504 -2.42957 9.30009 3.24225 -2.26895
lowerback 14.4927 3.01029 0.249439
upperback 9.12078 3.98035 -1.25039
thorax 1.63569 2.04353 -1.94705
lowerneck -11.3061 -0.465065 -3.48463
upperneck -11.1491 -0.0973147 1.84256
head -1.626 0.0982396 1.15944
rclavicle 1.18277e-014 -6.75868e-015
rhumerus 36.3957 59.3439 -78.099
rradius 39.1467
rwrist -47.496
rhand -47.8061 13.6217
rfingers 7.12502
rthumb -20.4821 -15.3179
lclavicle 1.18277e-014 -6.75868e-015
lhumerus 35.9915 -14.3597 81.636
lradius 40.1586
lwrist 32.3347
lhand -40.0692 33.9564
lfingers 7.12502
lthumb -13.0345 63.5291
rfemur -9.32871 -22.0865 28.421
rtibia 28.1261
rfoot -28.1148 -27.692
rtoes -1.10185
lfemur -38.3663 -6.02833 -17.2736
ltibia 35.4288
lfoot -2.25657 2.17577
ltoes -12.0338
988
root 9.69779 17.3465 -2.45114 8.95064 2.71331 -2.40009
lowerback 14.2112 3.07056 0.175321
upperback 8.91539 4.04984 -1.21961
thorax 1.55959 2.07148 -1.87279
lowerneck -11.1956 -0.451412 -3.4647
upperneck -11.213 -0.0947048 1.719
head -1.66442 0.0989275 1.11704
rclavicle -1.96797e-014 4.35338e-014
rhumerus 36.8165 58.6387 -77.6601
rradius 39.2487
rwrist -46.236
rhand -47.7256 14.6124
rfingers 7.12502
rthumb -20.4048 -14.3356
lclavicle -1.96797e-014 4.35338e-014
lhumerus 36.5173 -14.7416 80.9447
lradius 40.9265
lwrist 33.5885
lhand -40.5259 33.2957
lfingers 7.12502
lthumb -13.4747 62.8398
rfemur -8.82254 -21.638 28.3605
rtibia 27.8057
rfoot -28.1474 -27.6992
rtoes -0.0924095
lfemur -37.9849 -5.71101 -17.2217
ltibia 35.4332
lfoot -2.21361 2.53437
ltoes -10.7245
989
root 9.71772 17.3388 -2.47275 8.42667 2.289 -2.62969
lowerback 14.069 3.06954 0.524912
upperback 8.76684 4.08642 -1.27596
thorax 1.50744 2.1037 -2.12737
lowerneck -11.0696 -0.383095 -2.95474
upperneck -11.2924 -0.0853545 1.29276
head -1.70841 0.0873072 0.89473
rclavicle -7.95139e-016 1.39149e-014
rhumerus 37.0996 57.7853 -77.5554
rradius 39.3052
rwrist -44.7268
rhand -47.8033 14.7251
rfingers 7.12502
rthumb -20.4794 -14.2148
lclavicle -7.95139e-016 1.39149e-014
lhumerus 37.261 -15.1234 80.0976
lradius 41.4967
lwrist 34.275
lhand -39.626 34.2474
lfingers 7.12502
lthumb -12.6072 63.847
rfemur -8.07889 -21.2836 28.2975
rtibia 27.5013
rfoot -28.5006 -27.3661
rtoes 1.2361
lfemur -37.4466 -5.56393 -17.0511
ltibia 35.4628
lfoot -2.32233 2.61726
ltoes -11.4559
990
root 9.73724 17.3365 -2.49368 7.92965 1.92919 -2.67769
lowerback 13.8801 3.04253 0.739025
upperback 8.6085 4.0741 -1.34626
thorax 1.45944 2.10615 -2.31264
lowerneck -10.951 -0.324263 -2.69945
upperneck -11.278 -0.0509811 1.06872
head -1.72236 0.0955445 0.78123
rclavicle -1.61016e-014 1.70955e-014
rhumerus 37.3238 57.0609 -77.4116
rradius 39.3581
rwrist -43.2963
rhand -47.2285 12.9704
rfingers 7.12502
rthumb -19.9269 -16.0279
lclavicle -1.61016e-014 1.70955e-014
lhumerus 37.7548 -15.2732 79.744
lradius 42.2532
lwrist 34.586
lhand -38.2306 34.9967
lfingers 7.12502
lthumb -11.2617 64.6744
rfemur -7.41304 -20.9903 28.0319
rtibia 27.2609
rfoot -28.4035 -27.3876
rtoes 0.0110122
lfemur -36.803 -5.55524 -17.0298
ltibia 35.3778
lfoot -2.43119 2.78305
ltoes -11.3588
